{"title":"Mat Zo Live at Madison Square Garden 1080p","uid":11340972,"size":1829468443,"categoryP":"video","categoryS":"music_videos","magnet":"?xt=urn:btih:683983c6889dbcd2ebafa151f3fe7eb44ef32a2c&amp;dn=Mat+Zo+Live+at+Madison+Square+Garden+1080p+&amp;tr=udp%3A%2F%2Ftracker.openbittorrent.com%3A80&amp;tr=udp%3A%2F%2Fopen.demonii.com%3A1337&amp;tr=udp%3A%2F%2Ftracker.coppersurfer.tk%3A6969&amp;tr=udp%3A%2F%2Fexodus.desync.com%3A6969","seeders":0,"leechers":1,"uploader":"Liebe_Ist","files":1,"time":1414801626,"description":"Mat.Zo.Live.at.Madison.Square.Garden.1080p.VODRip.H264-Liebe_Ist.mp4\n\nGeneral\nFormat                         : MPEG-4\nFormat profile                 : Base Media\nCodec ID                       : isom\nFile size                      : 1.70 GiB\nDuration                       : 59mn 2s\nOverall bit rate               : 4 132 Kbps\nWriting application            : Lavf55.33.100\n\nVideo\nID                             : 1\nFormat                         : AVC\nFormat/Info                    : Advanced Video Codec\nFormat profile                 : &lt;a class=&quot;__cf_email__&quot; href=&quot;/cdn-cgi/l/email-protection&quot; data-cfemail=&quot;3d75545a557d7109130d&quot;&gt;[email&amp;#160;protected]&lt;/a&gt;&lt;script cf-hash='f9e31' type=&quot;text/javascript&quot;&gt;\n/* &lt;![CDATA[ */!function(){try{var t=&quot;currentScript&quot;in document?document.currentScript:function(){for(var t=document.getElementsByTagName(&quot;script&quot;),e=t.length;e--;)if(t[e].getAttribute(&quot;cf-hash&quot;))return t[e]}();if(t&amp;&amp;t.previousSibling){var e,r,n,i,c=t.previousSibling,a=c.getAttribute(&quot;data-cfemail&quot;);if(a){for(e=&quot;&quot;,r=parseInt(a.substr(0,2),16),n=2;a.length-n;n+=2)i=parseInt(a.substr(n,2),16)^r,e+=String.fromCharCode(i);e=document.createTextNode(e),c.parentNode.replaceChild(e,c)}}}catch(u){}}();/* ]]&gt; */&lt;/script&gt;\nFormat settings, CABAC         : Yes\nFormat settings, ReFrames      : 2 frames\nCodec ID                       : avc1\nCodec ID/Info                  : Advanced Video Coding\nDuration                       : 59mn 2s\nBit rate                       : 4 001 Kbps\nWidth                          : 1 920 pixels\nHeight                         : 1 080 pixels\nDisplay aspect ratio           : 16:9\nFrame rate mode                : Constant\nFrame rate                     : 29.970 fps\nColor space                    : YUV\nChroma subsampling             : 4:2:0\nBit depth                      : 8 bits\nScan type                      : Progressive\nBits/(Pixel*Frame)             : 0.064\nStream size                    : 1.65 GiB (97%)\n\nAudio\nID                             : 2\nFormat                         : AAC\nFormat/Info                    : Advanced Audio Codec\nFormat profile                 : LC\nCodec ID                       : 40\nDuration                       : 59mn 2s\nBit rate mode                  : Constant\nBit rate                       : 126 Kbps\nChannel count                  : 2 channels\nChannel positions              : Front: L R\nSampling rate                  : 44.1 KHz\nCompression mode               : Lossy\nDelay relative to video        : 33ms\nStream size                    : 53.0 MiB (3%)","torrent":{"xt":"urn:btih:683983c6889dbcd2ebafa151f3fe7eb44ef32a2c","amp;dn":"Mat+Zo+Live+at+Madison+Square+Garden+1080p+","amp;tr":["udp%3A%2F%2Ftracker.openbittorrent.com%3A80","udp%3A%2F%2Fopen.demonii.com%3A1337","udp%3A%2F%2Ftracker.coppersurfer.tk%3A6969","udp%3A%2F%2Fexodus.desync.com%3A6969"],"infoHash":"683983c6889dbcd2ebafa151f3fe7eb44ef32a2c","infoHashBuffer":{"type":"Buffer","data":[104,57,131,198,136,157,188,210,235,175,161,81,243,254,126,180,78,243,42,44]},"announce":[],"urlList":[]}}